<svg xmlns="http://www.w3.org/2000/svg" viewBox="0 0 900 600">
  <!-- Background -->
  <rect width="900" height="600" fill="#f8f9fa"/>
  
  <!-- Title -->
  <text x="450" y="40" text-anchor="middle" font-size="24" font-weight="bold" fill="#333">MCU vs SFU 架构对比</text>
  
  <!-- SFU Architecture -->
  <rect x="50" y="70" width="380" height="230" fill="#e3f2fd" stroke="#1976d2" stroke-width="2" rx="8"/>
  <text x="240" y="95" text-anchor="middle" font-size="18" font-weight="bold" fill="#1976d2">SFU 架构</text>
  
  <!-- SFU Server -->
  <rect x="180" y="110" width="120" height="60" fill="#1976d2" rx="5"/>
  <text x="240" y="145" text-anchor="middle" font-size="14" fill="white">SFU Server</text>
  
  <!-- SFU Clients -->
  <rect x="60" y="200" width="80" height="50" fill="#64b5f6" rx="5"/>
  <text x="100" y="230" text-anchor="middle" font-size="12" fill="white">用户A</text>
  
  <rect x="160" y="200" width="80" height="50" fill="#64b5f6" rx="5"/>
  <text x="200" y="230" text-anchor="middle" font-size="12" fill="white">用户B</text>
  
  <rect x="260" y="200" width="80" height="50" fill="#64b5f6" rx="5"/>
  <text x="300" y="230" text-anchor="middle" font-size="12" fill="white">用户C</text>
  
  <rect x="360" y="200" width="60" height="50" fill="#64b5f6" rx="5"/>
  <text x="390" y="230" text-anchor="middle" font-size="12" fill="white">用户D</text>
  
  <!-- SFU Arrows -->
  <path d="M100 200 L220 170" stroke="#333" stroke-width="1.5" marker-end="url(#arrowhead)"/>
  <path d="M200 200 L240 170" stroke="#333" stroke-width="1.5" marker-end="url(#arrowhead)"/>
  <path d="M300 200 L260 170" stroke="#333" stroke-width="1.5" marker-end="url(#arrowhead)"/>
  <path d="M390 200 L280 170" stroke="#333" stroke-width="1.5" marker-end="url(#arrowhead)"/>
  
  <!-- SFU Down Arrows -->
  <path d="M220 170 L110 200" stroke="#666" stroke-width="1.5" stroke-dasharray="4" marker-end="url(#arrowhead2)"/>
  <path d="M240 170 L210 200" stroke="#666" stroke-width="1.5" stroke-dasharray="4" marker-end="url(#arrowhead2)"/>
  <path d="M260 170 L310 200" stroke="#666" stroke-width="1.5" stroke-dasharray="4" marker-end="url(#arrowhead2)"/>
  <path d="M280 170 L390 200" stroke="#666" stroke-width="1.5" stroke-dasharray="4" marker-end="url(#arrowhead2)"/>
  
  <!-- SFU Characteristics -->
  <text x="70" y="280" font-size="11" fill="#555">✓ 只转发，不解码</text>
  <text x="70" y="295" font-size="11" fill="#555">✓ 延迟低 (&lt;200ms)</text>
  <text x="240" y="280" font-size="11" fill="#555">✗ 客户端带宽压力大</text>
  <text x="240" y="295" font-size="11" fill="#555">✗ 多路解码耗电</text>
  
  <!-- MCU Architecture -->
  <rect x="50" y="330" width="380" height="230" fill="#f3e5f5" stroke="#7b1fa2" stroke-width="2" rx="8"/>
  <text x="240" y="355" text-anchor="middle" font-size="18" font-weight="bold" fill="#7b1fa2">MCU 架构</text>
  
  <!-- MCU Server -->
  <rect x="180" y="370" width="120" height="80" fill="#7b1fa2" rx="5"/>
  <text x="240" y="395" text-anchor="middle" font-size="14" fill="white">MCU Server</text>
  <text x="240" y="415" text-anchor="middle" font-size="10" fill="#e1bee7">混音 + 混画</text>
  <text x="240" y="430" text-anchor="middle" font-size="10" fill="#e1bee7">编码输出</text>
  
  <!-- MCU Clients -->
  <rect x="60" y="470" width="80" height="50" fill="#ba68c8" rx="5"/>
  <text x="100" y="500" text-anchor="middle" font-size="12" fill="white">用户A</text>
  
  <rect x="160" y="470" width="80" height="50" fill="#ba68c8" rx="5"/>
  <text x="200" y="500" text-anchor="middle" font-size="12" fill="white">用户B</text>
  
  <rect x="260" y="470" width="80" height="50" fill="#ba68c8" rx="5"/>
  <text x="300" y="500" text-anchor="middle" font-size="12" fill="white">用户C</text>
  
  <rect x="360" y="470" width="60" height="50" fill="#ba68c8" rx="5"/>
  <text x="390" y="500" text-anchor="middle" font-size="12" fill="white">用户D</text>
  
  <!-- MCU Arrows -->
  <path d="M100 470 L220 450" stroke="#333" stroke-width="1.5" marker-end="url(#arrowhead)"/>
  <path d="M200 470 L240 450" stroke="#333" stroke-width="1.5" marker-end="url(#arrowhead)"/>
  <path d="M300 470 L260 450" stroke="#333" stroke-width="1.5" marker-end="url(#arrowhead)"/>
  <path d="M390 470 L280 450" stroke="#333" stroke-width="1.5" marker-end="url(#arrowhead)"/>
  
  <!-- MCU Single Output -->
  <path d="M240 450 L240 520" stroke="#7b1fa2" stroke-width="3" marker-end="url(#arrowhead3)"/>
  <text x="260" y="510" font-size="11" fill="#7b1fa2" font-weight="bold">单路合流输出</text>
  
  <!-- MCU Characteristics -->
  <text x="70" y="545" font-size="11" fill="#555">✓ 客户端只需接收1路</text>
  <text x="70" y="560" font-size="11" fill="#555">✓ 适合录制/直播推流</text>
  <text x="240" y="545" font-size="11" fill="#555">✗ 服务端计算压力大</text>
  <text x="240" y="560" font-size="11" fill="#555">✗ 延迟较高 (300-500ms)</text>
  
  <!-- Comparison Table -->
  <rect x="470" y="70" width="380" height="490" fill="#fff" stroke="#ccc" stroke-width="1" rx="5"/>
  <text x="660" y="95" text-anchor="middle" font-size="16" font-weight="bold" fill="#333">对比表</text>
  
  <!-- Table Header -->
  <rect x="490" y="110" width="100" height="30" fill="#e0e0e0"/>
  <rect x="590" y="110" width="110" height="30" fill="#e3f2fd"/>
  <rect x="700" y="110" width="110" height="30" fill="#f3e5f5"/>
  <text x="540" y="130" text-anchor="middle" font-size="12" fill="#333">维度</text>
  <text x="645" y="130" text-anchor="middle" font-size="12" fill="#1976d2">SFU</text>
  <text x="755" y="130" text-anchor="middle" font-size="12" fill="#7b1fa2">MCU</text>
  
  <!-- Table Rows -->
  <text x="495" y="155" font-size="11" fill="#333">服务端负载</text>
  <text x="595" y="155" font-size="11" fill="#555">低</text>
  <text x="705" y="155" font-size="11" fill="#555">高</text>
  
  <text x="495" y="180" font-size="11" fill="#333">客户端带宽</text>
  <text x="595" y="180" font-size="11" fill="#555">高 (N-1路)</text>
  <text x="705" y="180" font-size="11" fill="#555">低 (1路)</text>
  
  <text x="495" y="205" font-size="11" fill="#333">端到端延迟</text>
  <text x="595" y="205" font-size="11" fill="#555">低 (&lt;200ms)</text>
  <text x="705" y="205" font-size="11" fill="#555">中 (300-500ms)</text>
  
  <text x="495" y="230" font-size="11" fill="#333">录制难度</text>
  <text x="595" y="230" font-size="11" fill="#555">复杂</text>
  <text x="705" y="230" font-size="11" fill="#555">简单</text>
  
  <text x="495" y="255" font-size="11" fill="#333">CDN推流</text>
  <text x="595" y="255" font-size="11" fill="#555">需额外转码</text>
  <text x="705" y="255" font-size="11" fill="#555">直接可用</text>
  
  <text x="495" y="280" font-size="11" fill="#333">适用场景</text>
  <text x="595" y="280" font-size="11" fill="#555">视频会议</text>
  <text x="705" y="280" font-size="11" fill="#555">直播连麦</text>
  
  <!-- Use Cases -->
  <rect x="490" y="300" width="320" height="160" fill="#f5f5f5" rx="5"/>
  <text x="650" y="320" text-anchor="middle" font-size="14" font-weight="bold" fill="#333">选择建议</text>
  
  <text x="500" y="345" font-size="12" fill="#1976d2" font-weight="bold">选择SFU:</text>
  <text x="500" y="365" font-size="10" fill="#555">• 高质量视频会议</text>
  <text x="500" y="380" font-size="10" fill="#555">• 小型会议 (≤4人)</text>
  <text x="500" y="395" font-size="10" fill="#555">• 端到端加密需求</text>
  
  <text x="500" y="420" font-size="12" fill="#7b1fa2" font-weight="bold">选择MCU:</text>
  <text x="500" y="440" font-size="10" fill="#555">• 大规模直播 (观众&gt;100)</text>
  <text x="500" y="455" font-size="10" fill="#555">• 移动端优先</text>
  
  <!-- Arrow Markers -->
  <defs>
    <marker id="arrowhead" markerWidth="10" markerHeight="7" refX="9" refY="3.5" orient="auto">
      <polygon points="0 0, 10 3.5, 0 7" fill="#333"/>
    </marker>
    <marker id="arrowhead2" markerWidth="10" markerHeight="7" refX="9" refY="3.5" orient="auto">
      <polygon points="0 0, 10 3.5, 0 7" fill="#666"/>
    </marker>
    <marker id="arrowhead3" markerWidth="10" markerHeight="7" refX="9" refY="3.5" orient="auto">
      <polygon points="0 0, 10 3.5, 0 7" fill="#7b1fa2"/>
    </marker>
  </defs>
</svg>