<svg xmlns="http://www.w3.org/2000/svg" viewBox="0 0 900 600">
  <!-- Background -->
  <rect width="900" height="600" fill="#f8f9fa"/>
  
  <!-- Title -->
  <text x="450" y="35" text-anchor="middle" font-size="24" font-weight="bold" fill="#333">TURN中继流程</text>
  
  <!-- Client A -->
  <g transform="translate(50, 80)">
    <rect width="180" height="280" fill="#e3f2fd" stroke="#1976d2" stroke-width="2" rx="8"/>
    <text x="90" y="30" text-anchor="middle" font-size="14" font-weight="bold" fill="#1976d2">客户端 A</text>
    
    <rect x="15" y="45" width="150" height="50" fill="#64b5f6" rx="5"/>
    <text x="90" y="67" text-anchor="middle" font-size="11" fill="white">内网地址</text>
    <text x="90" y="85" text-anchor="middle" font-size="10" fill="#e3f2fd">192.168.1.2:5000</text>
    
    <rect x="15" y="105" width="150" height="50" fill="#ff9800" rx="5"/>
    <text x="90" y="127" text-anchor="middle" font-size="11" fill="white">对称NAT</text>
    <text x="90" y="145" text-anchor="middle" font-size="10" fill="#fff3e0">无法P2P穿透</text>
    
    <rect x="15" y="165" width="150" height="50" fill="#4caf50" rx="5"/>
    <text x="90" y="187" text-anchor="middle" font-size="11" fill="white">TURN分配</text>
    <text x="90" y="205" text-anchor="middle" font-size="10" fill="#e8f5e9">203.0.113.10:10001</text>
    
    <rect x="15" y="225" width="150" height="40" fill="#9c27b0" rx="5"/>
    <text x="90" y="250" text-anchor="middle" font-size="11" fill="white">中继通信</text>
  </g>
  
  <!-- Client B -->
  <g transform="translate(670, 80)">
    <rect width="180" height="280" fill="#f3e5f5" stroke="#7b1fa2" stroke-width="2" rx="8"/>
    <text x="90" y="30" text-anchor="middle" font-size="14" font-weight="bold" fill="#7b1fa2">客户端 B</text>
    
    <rect x="15" y="45" width="150" height="50" fill="#ba68c8" rx="5"/>
    <text x="90" y="67" text-anchor="middle" font-size="11" fill="white">内网地址</text>
    <text x="90" y="85" text-anchor="middle" font-size="10" fill="#f3e5f5">192.168.2.3:6000</text>
    
    <rect x="15" y="105" width="150" height="50" fill="#4caf50" rx="5"/>
    <text x="90" y="127" text-anchor="middle" font-size="11" fill="white">锥型NAT</text>
    <text x="90" y="145" text-anchor="middle" font-size="10" fill="#e8f5e9">支持P2P</text>
    
    <rect x="15" y="165" width="150" height="50" fill="#4caf50" rx="5"/>
    <text x="90" y="187" text-anchor="middle" font-size="11" fill="white">公网映射</text>
    <text x="90" y="205" text-anchor="middle" font-size="10" fill="#e8f5e9">198.51.100.5:7001</text>
    
    <rect x="15" y="225" width="150" height="40" fill="#ff5722" rx="5"/>
    <text x="90" y="250" text-anchor="middle" font-size="11" fill="white">直连失败</text>
  </g>
  
  <!-- TURN Server -->
  <g transform="translate(320, 80)">
    <rect width="260" height="400" fill="#fff8e1" stroke="#ffa000" stroke-width="2" rx="8"/>
    <text x="130" y="30" text-anchor="middle" font-size="16" font-weight="bold" fill="#e65100">TURN服务器</text>
    <text x="130" y="50" text-anchor="middle" font-size="11" fill="#666">203.0.113.10:3478</text>
    
    <!-- Allocation Module -->
    <g transform="translate(15, 65)">
      <rect width="230" height="90" fill="#ffcc80" stroke="#ff8f00" stroke-width="1" rx="5"/>
      <text x="115" y="20" text-anchor="middle" font-size="12" font-weight="bold" fill="#e65100">分配管理</text>
      
      <rect x="10" y="30" width="100" height="50" fill="#ffe0b2" rx="4"/>
      <text x="60" y="48" text-anchor="middle" font-size="10" fill="#5d4037">Allocate</text>
      <text x="60" y="65" text-anchor="middle" font-size="9" fill="#795548">分配中继地址</text>
      <text x="60" y="78" text-anchor="middle" font-size="9" fill="#4caf50">→ :10001</text>
      
      <rect x="120" y="30" width="100" height="50" fill="#ffe0b2" rx="4"/>
      <text x="170" y="48" text-anchor="middle" font-size="10" fill="#5d4037">Refresh</text>
      <text x="170" y="65" text-anchor="middle" font-size="9" fill="#795548">保活续约</text>
      <text x="170" y="78" text-anchor="middle" font-size="9" fill="#4caf50">默认600s</text>
    </g>
    
    <!-- Permission Module -->
    <g transform="translate(15, 165)">
      <rect width="230" height="80" fill="#c8e6c9" stroke="#4caf50" stroke-width="1" rx="5"/>
      <text x="115" y="20" text-anchor="middle" font-size="12" font-weight="bold" fill="#2e7d32">权限控制</text>
      
      <rect x="10" y="35" width="100" height="35" fill="#a5d6a7" rx="4"/>
      <text x="60" y="52" text-anchor="middle" font-size="10" fill="#1b5e20">CreatePermission</text>
      <text x="60" y="65" text-anchor="middle" font-size="9" fill="#388e3c">允许B的地址</text>
      
      <rect x="120" y="35" width="100" height="35" fill="#a5d6a7" rx="4"/>
      <text x="170" y="52" text-anchor="middle" font-size="10" fill="#1b5e20">ChannelBind</text>
      <text x="170" y="65" text-anchor="middle" font-size="9" fill="#388e3c">通道绑定</text>
    </g>
    
    <!-- Relay Module -->
    <g transform="translate(15, 255)">
      <rect width="230" height="120" fill="#e1f5fe" stroke="#0288d1" stroke-width="1" rx="5"/>
      <text x="115" y="20" text-anchor="middle" font-size="12" font-weight="bold" fill="#01579b">数据中继</text>
      
      <rect x="10" y="35" width="100" height="75" fill="#81d4fa" rx="4"/>
      <text x="60" y="52" text-anchor="middle" font-size="10" fill="#01579b" font-weight="bold">Send Indication</text>
      <text x="60" y="70" text-anchor="middle" font-size="9" fill="#0277bd">A → 服务器</text>
      <text x="60" y="85" text-anchor="middle" font-size="9" fill="#0277bd">封装数据</text>
      <text x="60" y="100" text-anchor="middle" font-size="9" fill="#4caf50">转发给B</text>
      
      <rect x="120" y="35" width="100" height="75" fill="#81d4fa" rx="4"/>
      <text x="170" y="52" text-anchor="middle" font-size="10" fill="#01579b" font-weight="bold">Data Indication</text>
      <text x="170" y="70" text-anchor="middle" font-size="9" fill="#0277bd">B → 服务器</text>
      <text x="170" y="85" text-anchor="middle" font-size="9" fill="#0277bd">封装数据</text>
      <text x="170" y="100" text-anchor="middle" font-size="9" fill="#4caf50">转发给A</text>
    </g>
  </g>
  
  <!-- Flow Arrows -->
  <!-- Step 1: A Allocate Request -->
  <g>
    <path d="M230 180 L320 130" stroke="#1976d2" stroke-width="2" marker-end="url(#arrow1)"/>
    <text x="275" y="145" text-anchor="middle" font-size="10" fill="#1976d2" font-weight="bold">① Allocate Req</text>
    <text x="275" y="160" text-anchor="middle" font-size="9" fill="#666">请求分配中继</text>
  </g>
  
  <!-- Step 2: A Allocate Response -->
  <g>
    <path d="M320 150 L230 200" stroke="#4caf50" stroke-width="2" marker-end="url(#arrow2)"/>
    <text x="275" y="195" text-anchor="middle" font-size="10" fill="#4caf50" font-weight="bold">② Success Resp</text>
    <text x="275" y="210" text-anchor="middle" font-size="9" fill="#666">返回: 203.0.113.10:10001</text>
  </g>
  
  <!-- Step 3: Create Permission -->
  <g>
    <path d="M230 240 L320 210" stroke="#9c27b0" stroke-width="2" marker-end="url(#arrow3)"/>
    <text x="270" y="240" text-anchor="middle" font-size="10" fill="#9c27b0" font-weight="bold">③ CreatePermission</text>
    <text x="270" y="255" text-anchor="middle" font-size="9" fill="#666">允许B的地址: 198.51.100.5</text>
  </g>
  
  <!-- Step 4: A to B via Relay -->
  <g transform="translate(0, 20)">
    <path d="M230 300 L320 350" stroke="#0288d1" stroke-width="2" marker-end="url(#arrow4)"/>
    <text x="270" y="335" text-anchor="middle" font-size="10" fill="#0288d1" font-weight="bold">④ Send Indication</text>
  </g>
  
  <!-- Step 5: Relay to B -->
  <g>
    <path d="M580 350 L670 240" stroke="#ff5722" stroke-width="2" marker-end="url(#arrow5)"/>
    <text x="650" y="310" text-anchor="middle" font-size="10" fill="#ff5722" font-weight="bold">⑤ Data</text>
    <text x="650" y="325" text-anchor="middle" font-size="9" fill="#666">从:203.0.113.10:10001</text>
  </g>
  
  <!-- Step 6: B to Relay -->
  <g>
    <path d="M670 280 L580 370" stroke="#7b1fa2" stroke-width="2" marker-end="url(#arrow6)"/>
    <text x="650" y="340" text-anchor="middle" font-size="10" fill="#7b1fa2" font-weight="bold">⑥ Data</text>
    <text x="650" y="355" text-anchor="middle" font-size="9" fill="#666">发送到: 203.0.113.10:10001</text>
  </g>
  
  <!-- Step 7: Relay to A -->
  <g>
    <path d="M320 400 L230 360" stroke="#4caf50" stroke-width="2" marker-end="url(#arrow2)"/>
    <text x="275" y="395" text-anchor="middle" font-size="10" fill="#4caf50" font-weight="bold">⑦ Data Indication</text>
  </g>
  
  <!-- Comparison Box -->
  <g transform="translate(50, 380)">
    <rect width="250" height="200" fill="#f5f5f5" stroke="#9e9e9e" stroke-width="1" rx="8"/>
    <text x="125" y="25" text-anchor="middle" font-size="13" font-weight="bold" fill="#616161">STUN vs TURN 对比</text>
    
    <rect x="10" y="35" width="110" height="150" fill="#e8f5e9" stroke="#4caf50" stroke-width="1" rx="5"/>
    <text x="65" y="55" text-anchor="middle" font-size="11" font-weight="bold" fill="#2e7d32">STUN</text>
    <text x="65" y="80" text-anchor="middle" font-size="10" fill="#555">✓ 低延迟</text>
    <text x="65" y="100" text-anchor="middle" font-size="10" fill="#555">✓ 无服务器负担</text>
    <text x="65" y="120" text-anchor="middle" font-size="10" fill="#555">✗ 仅Cone NAT</text>
    <text x="65" y="140" text-anchor="middle" font-size="10" fill="#555">✗ 对称NAT失败</text>
    <text x="65" y="165" text-anchor="middle" font-size="10" fill="#4caf50" font-weight="bold">首选方案</text>
    
    <rect x="130" y="35" width="110" height="150" fill="#ffebee" stroke="#e53935" stroke-width="1" rx="5"/>
    <text x="185" y="55" text-anchor="middle" font-size="11" font-weight="bold" fill="#c62828">TURN</text>
    <text x="185" y="80" text-anchor="middle" font-size="10" fill="#555">✓ 100%成功</text>
    <text x="185" y="100" text-anchor="middle" font-size="10" fill="#555">✓ 任何NAT类型</text>
    <text x="185" y="120" text-anchor="middle" font-size="10" fill="#555">✗ 较高延迟</text>
    <text x="185" y="140" text-anchor="middle" font-size="10" fill="#555">✗ 服务器带宽</text>
    <text x="185" y="165" text-anchor="middle" font-size="10" fill="#e53935" font-weight="bold">保底方案</text>
  </g>
  
  <!-- Legend -->
  <g transform="translate(320, 500)">
    <rect width="530" height="90" fill="#fafafa" stroke="#ddd" stroke-width="1" rx="5"/>
    <text x="265" y="20" text-anchor="middle" font-size="12" font-weight="bold" fill="#333">TURN协议要点</text>
    <text x="15" y="42" font-size="10" fill="#555">• Allocate: 分配唯一的中继传输地址 (Relay Address)</text>
    <text x="15" y="60" font-size="10" fill="#555">• Permission: 类似防火墙白名单，仅允许指定对端地址通信</text>
    <text x="15" y="78" font-size="10" fill="#555">• ChannelBind: 优化模式，使用Channel Number代替完整地址，减少开销</text>
  </g>
  
  <!-- Arrow Markers -->
  <defs>
    <marker id="arrow1" markerWidth="10" markerHeight="7" refX="9" refY="3.5" orient="auto">
      <polygon points="0 0, 10 3.5, 0 7" fill="#1976d2"/>
    </marker>
    <marker id="arrow2" markerWidth="10" markerHeight="7" refX="9" refY="3.5" orient="auto">
      <polygon points="0 0, 10 3.5, 0 7" fill="#4caf50"/>
    </marker>
    <marker id="arrow3" markerWidth="10" markerHeight="7" refX="9" refY="3.5" orient="auto">
      <polygon points="0 0, 10 3.5, 0 7" fill="#9c27b0"/>
    </marker>
    <marker id="arrow4" markerWidth="10" markerHeight="7" refX="9" refY="3.5" orient="auto">
      <polygon points="0 0, 10 3.5, 0 7" fill="#0288d1"/>
    </marker>
    <marker id="arrow5" markerWidth="10" markerHeight="7" refX="9" refY="3.5" orient="auto">
      <polygon points="0 0, 10 3.5, 0 7" fill="#ff5722"/>
    </marker>
    <marker id="arrow6" markerWidth="10" markerHeight="7" refX="9" refY="3.5" orient="auto">
      <polygon points="0 0, 10 3.5, 0 7" fill="#7b1fa2"/>
    </marker>
  </defs>
</svg>