<svg xmlns="http://www.w3.org/2000/svg" viewBox="0 0 900 450">
  <!-- Background -->
  <rect width="900" height="450" fill="#f8f9fa"/>
  
  <!-- Title -->
  <text x="450" y="35" text-anchor="middle" font-size="24" font-weight="bold" fill="#333">端到端延迟测量</text>
  
  <!-- Timeline -->
  <g transform="translate(50, 70)">
    <rect width="800" height="300" fill="white" stroke="#ddd" stroke-width="2" rx="8"/>
    
    <!-- Time axis -->
    <line x1="50" y1="150" x2="750" y2="150" stroke="#333" stroke-width="2"/>
    
    <!-- Capture -->
    <rect x="80" y="60" width="80" height="60" fill="#e3f2fd" stroke="#1976d2" stroke-width="2" rx="5"/>
    <text x="120" y="85" text-anchor="middle" font-size="11" font-weight="bold" fill="#1976d2">采集</text>
    <text x="120" y="105" text-anchor="middle" font-size="9" fill="#555">10-50ms</text>
    
    <!-- Encode -->
    <rect x="180" y="60" width="80" height="60" fill="#fff3e0" stroke="#f57c00" stroke-width="2" rx="5"/>
    <text x="220" y="85" text-anchor="middle" font-size="11" font-weight="bold" fill="#f57c00">编码</text>
    <text x="220" y="105" text-anchor="middle" font-size="9" fill="#555">10-100ms</text>
    
    <!-- Send Buffer -->
    <rect x="280" y="60" width="80" height="60" fill="#f3e5f5" stroke="#7b1fa2" stroke-width="2" rx="5"/>
    <text x="320" y="80" text-anchor="middle" font-size="10" font-weight="bold" fill="#7b1fa2">发送缓冲</text>
    <text x="320" y="105" text-anchor="middle" font-size="9" fill="#555">20-100ms</text>
    
    <!-- Network -->
    <rect x="380" y="60" width="100" height="60" fill="#ffebee" stroke="#c62828" stroke-width="2" rx="5"/>
    <text x="430" y="85" text-anchor="middle" font-size="11" font-weight="bold" fill="#c62828">网络传输</text>
    <text x="430" y="105" text-anchor="middle" font-size="9" fill="#555">20-200ms</text>
    
    <!-- Jitter Buffer -->
    <rect x="500" y="60" width="80" height="60" fill="#e8f5e9" stroke="#388e3c" stroke-width="2" rx="5"/>
    <text x="540" y="80" text-anchor="middle" font-size="10" font-weight="bold" fill="#388e3c">接收缓冲</text>
    <text x="540" y="105" text-anchor="middle" font-size="9" fill="#555">50-200ms</text>
    
    <!-- Decode -->
    <rect x="600" y="60" width="60" height="60" fill="#e1f5fe" stroke="#0288d1" stroke-width="2" rx="5"/>
    <text x="630" y="85" text-anchor="middle" font-size="11" font-weight="bold" fill="#0288d1">解码</text>
    <text x="630" y="105" text-anchor="middle" font-size="9" fill="#555">10-50ms</text>
    
    <!-- Render -->
    <rect x="680" y="60" width="60" height="60" fill="#fff8e1" stroke="#ffa000" stroke-width="2" rx="5"/>
    <text x="710" y="85" text-anchor="middle" font-size="11" font-weight="bold" fill="#ffa000">渲染</text>
    <text x="710" y="105" text-anchor="middle" font-size="9" fill="#555">16-33ms</text>
    
    <!-- Arrows -->
    <path d="M160 90 L180 90" stroke="#666" stroke-width="1.5" marker-end="url(#arrowhead)"/>
    <path d="M260 90 L280 90" stroke="#666" stroke-width="1.5" marker-end="url(#arrowhead)"/>
    <path d="M360 90 L380 90" stroke="#666" stroke-width="1.5" marker-end="url(#arrowhead)"/>
    <path d="M480 90 L500 90" stroke="#666" stroke-width="1.5" marker-end="url(#arrowhead)"/>
    <path d="M580 90 L600 90" stroke="#666" stroke-width="1.5" marker-end="url(#arrowhead)"/>
    <path d="M660 90 L680 90" stroke="#666" stroke-width="1.5" marker-end="url(#arrowhead)"/>
    
    <!-- Total -->
    <rect x="300" y="200" width="200" height="60" fill="#fce4ec" stroke="#c2185b" stroke-width="3" rx="8"/>
    <text x="400" y="230" text-anchor="middle" font-size="14" font-weight="bold" fill="#c2185b">总延迟</text>
    <text x="400" y="252" text-anchor="middle" font-size="12" fill="#880e4f">150-700ms</text>
  </g>
  
  
  <!-- Measurement Methods -->
  <g transform="translate(50, 390)">
    <rect width="800" height="50" fill="#fafafa" stroke="#ddd" stroke-width="1" rx="5"/>
    
    <text x="20" y="20" font-size="11" font-weight="bold" fill="#333">测量方法:</text>
    
    <text x="120" y="20" font-size="10" fill="#555">1. NTP水印法  |  2. RTCP XR扩展  |  3. 音视频同步时差法</text>
    
    <text x="20" y="40" font-size="10" fill="#666">优化目标: 会议级 < 300ms | 直播级 < 5s | 超低延迟 < 500ms</text>
  </g>
  
  
  <!-- Arrow Marker -->
  <defs>
    <marker id="arrowhead" markerWidth="10" markerHeight="7" refX="9" refY="3.5" orient="auto">
      <polygon points="0 0, 10 3.5, 0 7" fill="#666"/>
    </marker>
  </defs>
</svg>