<svg xmlns="http://www.w3.org/2000/svg" viewBox="0 0 700 380">
  <rect width="700" height="380" fill="#fafafa"/>
  
  <!-- 标题 -->
  <text x="350" y="25" text-anchor="middle" font-size="15" font-weight="bold" fill="#333">Pipeline 分层架构</text>
  
  <!-- 应用层 -->
  <rect x="50" y="40" width="600" height="55" rx="4" fill="#e3f2fd" stroke="#1976d2" stroke-width="2"/>
  <text x="350" y="62" text-anchor="middle" font-size="13" font-weight="bold" fill="#333">应用层 (main.cpp)</text>
  <text x="350" y="82" text-anchor="middle" font-size="11" fill="#555">创建 Pipeline，设置回调，处理用户输入</text>
  
  <!-- 调度层 -->
  <rect x="50" y="105" width="600" height="55" rx="4" fill="#f3e5f5" stroke="#7b1fa2" stroke-width="2"/>
  <text x="350" y="127" text-anchor="middle" font-size="13" font-weight="bold" fill="#333">调度层 (SimplePipeline)</text>
  <text x="350" y="147" text-anchor="middle" font-size="11" fill="#555">控制数据流，管理生命周期，协调各模块</text>
  
  <!-- 核心处理层背景 -->
  <rect x="50" y="170" width="600" height="125" rx="4" fill="#e8f5e9" stroke="#388e3c" stroke-width="2"/>
  <text x="110" y="190" font-size="12" font-weight="bold" fill="#333">核心处理层</text>
  
  <!-- Demuxer -->
  <rect x="80" y="200" width="160" height="80" rx="4" fill="#fff3e0" stroke="#f57c00" stroke-width="2"/>
  <text x="160" y="225" text-anchor="middle" font-size="13" font-weight="bold" fill="#333">Demuxer</text>
  <text x="160" y="245" text-anchor="middle" font-size="11" fill="#666">解封装</text>
  <text x="160" y="265" text-anchor="middle" font-size="10" fill="#888">AVPacket</text>
  
  <!-- 箭头 1 -->
  <polygon points="250,240 270,240 265,235 270,240 265,245" fill="#666"/>
  <line x1="250" y1="240" x2="270" y2="240" stroke="#666" stroke-width="2"/>
  
  <!-- Decoder -->
  <rect x="280" y="200" width="160" height="80" rx="4" fill="#e1f5fe" stroke="#0288d1" stroke-width="2"/>
  <text x="360" y="225" text-anchor="middle" font-size="13" font-weight="bold" fill="#333">Decoder</text>
  <text x="360" y="245" text-anchor="middle" font-size="11" fill="#666">解码</text>
  <text x="360" y="265" text-anchor="middle" font-size="10" fill="#888">AVFrame</text>
  
  <!-- 箭头 2 -->
  <polygon points="450,240 470,240 465,235 470,240 465,245" fill="#666"/>
  <line x1="450" y1="240" x2="470" y2="240" stroke="#666" stroke-width="2"/>
  
  <!-- Renderer -->
  <rect x="480" y="200" width="140" height="80" rx="4" fill="#fce4ec" stroke="#c2185b" stroke-width="2"/>
  <text x="550" y="225" text-anchor="middle" font-size="13" font-weight="bold" fill="#333">Renderer</text>
  <text x="550" y="245" text-anchor="middle" font-size="11" fill="#666">渲染</text>
  <text x="550" y="265" text-anchor="middle" font-size="10" fill="#888">Screen</text>
  
  <!-- 可观测性层 -->
  <rect x="50" y="305" width="600" height="55" rx="4" fill="#fff8e1" stroke="#f9a825" stroke-width="2"/>
  <text x="350" y="327" text-anchor="middle" font-size="13" font-weight="bold" fill="#333">可观测性基础设施</text>
  <text x="350" y="347" text-anchor="middle" font-size="11" fill="#555">Observer + Stats + ErrorCode</text>
  
  <!-- 虚线连接到底层 -->
  <line x1="160" y1="280" x2="160" y2="305" stroke="#999" stroke-width="1" stroke-dasharray="4,2"/>
  <line x1="360" y1="280" x2="360" y2="305" stroke="#999" stroke-width="1" stroke-dasharray="4,2"/>
  <line x1="550" y1="280" x2="550" y2="305" stroke="#999" stroke-width="1" stroke-dasharray="4,2"/>
  
  <!-- 右侧说明 -->
  <text x="630" y="240" font-size="10" fill="#666">数据流 →</text>
</svg>